<svg width="1280" height="720" xmlns="http://www.w3.org/2000/svg" xmlns:xlink="http://www.w3.org/1999/xlink" overflow="hidden"><defs><clipPath id="clip0"><rect x="0" y="0" width="1280" height="720"/></clipPath><linearGradient x1="449.432" y1="883.35" x2="830.568" y2="-163.537" gradientUnits="userSpaceOnUse" spreadMethod="reflect" id="fill1"><stop offset="0" stop-color="#F5F8FA"/><stop offset="0.58" stop-color="#EBF1F5"/><stop offset="1" stop-color="#CEDBE6"/></linearGradient><linearGradient x1="640" y1="0" x2="640" y2="719.812" gradientUnits="userSpaceOnUse" spreadMethod="reflect" id="fill2"><stop offset="0" stop-color="#F4FAFC"/><stop offset="0.74" stop-color="#9FD1E4"/><stop offset="0.83" stop-color="#9FD1E4"/><stop offset="1" stop-color="#BFE0ED"/></linearGradient></defs><g clip-path="url(#clip0)"><rect x="0" y="0" width="1280" height="719.812" fill="url(#fill1)"/><rect x="0" y="0" width="1280" height="719.812" fill="url(#fill2)"/><text fill="#373545" font-family="Cambria,Cambria_MSFontService,sans-serif" font-weight="400" font-size="48" transform="matrix(1 0 0 0.99974 57.4482 648)">Questions?<tspan fill="#000000" font-family="Calibri,Calibri_MSFontService,sans-serif" font-size="37" x="16.1541" y="-541.141">Links</tspan><tspan fill="#000000" font-family="Calibri,Calibri_MSFontService,sans-serif" font-size="30" x="16.1541" y="-476.124">-</tspan><tspan fill="#000000" font-family="Calibri,Calibri_MSFontService,sans-serif" font-size="37" x="40.1604" y="-476.124">Sample projects</tspan><tspan fill="#000000" font-family="Calibri,Calibri_MSFontService,sans-serif" font-size="26" x="50.8298" y="-432.113">-</tspan><tspan fill="#000000" font-family="Calibri,Calibri_MSFontService,sans-serif" font-size="32" x="80.8376" y="-432.113">https://github.com/brwilkinson/AzureDeploymentFramework</tspan><tspan fill="#000000" font-family="Calibri,Calibri_MSFontService,sans-serif" font-size="30" x="16.1541" y="-369.096">-</tspan><tspan fill="#000000" font-family="Calibri,Calibri_MSFontService,sans-serif" font-size="37" x="40.1604" y="-369.096">Template Information</tspan><tspan fill="#000000" font-family="Calibri,Calibri_MSFontService,sans-serif" font-size="26" x="50.8298" y="-325.085">-</tspan><tspan fill="#6B9F25" font-family="Calibri,Calibri_MSFontService,sans-serif" font-size="32" x="80.8376" y="-325.085">https://docs.microsoft.com/en</tspan><tspan fill="#6B9F25" font-family="Calibri,Calibri_MSFontService,sans-serif" font-size="32" x="480.175" y="-325.085">-</tspan><tspan fill="#6B9F25" font-family="Calibri,Calibri_MSFontService,sans-serif" font-size="32" x="490.011" y="-325.085">us/azure/templates/</tspan></text><path d="M64.9831 37.9901 290.258 37.9901 515.532 37.9901 740.807 37.9901 740.807 39.9896 515.532 39.9896 290.258 39.9896 64.9831 39.9896Z" fill="#6B9F25" fill-rule="evenodd" transform="matrix(1.00026 0 0 1 73.6024 288.725)"/><text font-family="Calibri,Calibri_MSFontService,sans-serif" font-weight="400" font-size="30" transform="matrix(1 0 0 0.99974 73.6024 386)">-<tspan font-size="37" x="24.0062" y="0">Feel free to reach out directly for other private projects</tspan><tspan font-size="26" x="34.6757" y="44.0115">-</tspan><tspan font-size="32" x="64.6835" y="44.0115">Assistance with Templates /  DSC / PowerShell</tspan><tspan font-size="30" x="0" y="106.028">-</tspan><tspan font-size="37" x="24.0062" y="106.028">All feedback is welcome . . . The ADF is always changing. </tspan></text></g></svg>